<svg width="288" height="238" viewBox="0 0 288 238" fill="none" xmlns="http://www.w3.org/2000/svg">
<path d="M57.8603 2H230.662L286 57.3661L143.217 236L2 57.3661L57.8603 2Z" fill="#EC2B00"/>
<path d="M57.8603 2H230.662M57.8603 2L2 57.3661M57.8603 2L143.217 17.6696M57.8603 2L84.4853 73.0357M230.662 2L286 57.3661M230.662 2L143.217 17.6696M230.662 2L209.257 73.0357M286 57.3661L143.217 236M286 57.3661L209.257 73.0357M143.217 236L2 57.3661M143.217 236L84.4853 73.0357M143.217 236L209.257 73.0357M2 57.3661L84.4853 73.0357M143.217 17.6696L209.257 73.0357M143.217 17.6696L84.4853 73.0357M209.257 73.0357H84.4853" stroke="white" stroke-width="4" stroke-linecap="round" stroke-linejoin="round"/>
</svg>
