<svg id="trashcan" viewBox="0 0 35 35" xmlns="http://www.w3.org/2000/svg" fill-rule="evenodd" clip-rule="evenodd">
  <path d="M 23.8 30 h -17.5 c -1.4 0 -2.5 -1.1 -2.5 -2.5 v -21.3 h -1.3 v -2.5 h 7.5 v -1.9 c 0 -1 0.8 -1.9 1.9 -1.9 h 6.3 c 1 0 1.9 0.8 1.9 1.9 v 1.9 h 7.5 v 2.5 h -1.3 v 21.3 c 0 1.4 -1.1 2.5 -2.5 2.5 z m 0 -23.8 h -17.5 v 20.6 c 0 0.3 0.3 0.6 0.6 0.6 h 16.3 c 0.3 0 0.6 -0.3 0.6 -0.6 v -20.6 z m -11.3 5 c 0 -0.7 -0.6 -1.3 -1.3 -1.3 s -1.3 0.6 -1.3 1.3 v 11.3 c 0 0.7 0.6 1.3 1.3 1.3 s 1.3 -0.6 1.3 -1.3 v -11.3 z m 7.5 0 c 0 -0.7 -0.6 -1.3 -1.3 -1.3 s -1.3 0.6 -1.3 1.3 v 11.3 c 0 0.7 0.6 1.3 1.3 1.3 s 1.3 -0.6 1.3 -1.3 v -11.3 z m -2.5 -8.8 h -5 v 1.3 h 5 v -1.3 z"/>
</svg>